<svg width="86" height="81" viewBox="0 0 86 81" fill="none" xmlns="http://www.w3.org/2000/svg">
<path d="M60.2706 35.933C59.0131 35.933 57.9583 35.5069 57.1062 34.6548C56.257 33.8056 55.8325 32.7523 55.8325 31.4948C55.8325 30.2374 56.257 29.1826 57.1062 28.3304C57.9583 27.4813 59.0131 27.0567 60.2706 27.0567C61.5281 27.0567 62.5814 27.4813 63.4306 28.3304C64.2827 29.1826 64.7087 30.2374 64.7087 31.4948C64.7087 32.7523 64.2827 33.8056 63.4306 34.6548C62.5814 35.5069 61.5281 35.933 60.2706 35.933ZM49.1752 25.0595L44.5152 20.3995C46.6603 18.2544 49.0835 16.6078 51.7849 15.4598C54.4833 14.3148 57.3118 13.7423 60.2706 13.7423C63.2294 13.7423 66.0594 14.3148 68.7608 15.4598C71.4592 16.6078 73.8809 18.2544 76.026 20.3995L71.366 25.0595C69.8866 23.5801 68.2045 22.4336 66.3198 21.62C64.4321 20.8063 62.4157 20.3995 60.2706 20.3995C58.1255 20.3995 56.1091 20.8063 54.2214 21.62C52.3367 22.4336 50.6546 23.5801 49.1752 25.0595ZM39.8551 15.5175L35.1951 10.8575C38.5237 7.52886 42.3523 4.95769 46.681 3.14397C51.0067 1.33321 55.5366 0.427826 60.2706 0.427826C65.0046 0.427826 69.5345 1.33321 73.8602 3.14397C78.1889 4.95769 82.0175 7.52886 85.3461 10.8575L80.6861 15.5175C77.9492 12.7807 74.8248 10.6903 71.3127 9.24642C67.7977 7.8055 64.117 7.08504 60.2706 7.08504C56.4242 7.08504 52.7627 7.82473 49.2862 9.30411C45.8096 10.7835 42.666 12.8546 39.8551 15.5175ZM75.5822 80.3144C66.0402 80.3144 56.7393 78.1871 47.6796 73.9324C38.6169 69.6806 30.5912 64.059 23.6027 57.0674C16.6111 50.0788 10.9894 42.0532 6.7377 32.9905C2.483 23.9308 0.355652 14.6299 0.355652 5.08788C0.355652 3.75643 0.799466 2.6469 1.68709 1.75927C2.57472 0.87164 3.68426 0.427826 5.0157 0.427826H22.9902C24.0258 0.427826 24.9504 0.760686 25.764 1.42641C26.5777 2.09213 27.0585 2.94277 27.2064 3.97834L30.0912 19.5118C30.2392 20.5474 30.2214 21.4898 30.038 22.3389C29.8516 23.1911 29.4255 23.95 28.7598 24.6157L18.1082 35.4892C21.2149 40.8149 25.0983 45.8078 29.7584 50.4679C34.4184 55.128 39.5593 59.1593 45.1809 62.5618L55.6105 52.1322C56.2763 51.4665 57.1461 50.9665 58.2202 50.6321C59.2912 50.3007 60.3446 50.209 61.3801 50.3569L76.6917 53.4636C77.7273 53.6856 78.5779 54.1841 79.2437 54.9593C79.9094 55.7375 80.2422 56.6443 80.2422 57.6799V75.6544C80.2422 76.9858 79.7984 78.0954 78.9108 78.983C78.0232 79.8706 76.9136 80.3144 75.5822 80.3144Z" fill="#087D4C"/>
</svg>
