<svg width="72" height="72" viewBox="0 0 72 72" fill="none" xmlns="http://www.w3.org/2000/svg">
<circle cx="36" cy="36" r="36" fill="#087D4C"/>
<rect x="16.5" y="25.5" width="40" height="21" stroke="white"/>
<path d="M27.816 30.576C28.7653 30.576 29.56 30.6667 30.2 30.848C30.8507 31.0293 31.336 31.328 31.656 31.744C31.9867 32.16 32.152 32.7147 32.152 33.408C32.152 33.856 32.0667 34.256 31.896 34.608C31.736 34.9493 31.4907 35.2373 31.16 35.472C30.84 35.696 30.4453 35.8507 29.976 35.936V36.016C30.456 36.0907 30.888 36.2293 31.272 36.432C31.6667 36.6347 31.976 36.9227 32.2 37.296C32.424 37.6693 32.536 38.1547 32.536 38.752C32.536 39.4453 32.376 40.0373 32.056 40.528C31.736 41.008 31.2773 41.376 30.68 41.632C30.0933 41.8773 29.3893 42 28.568 42H24.552V30.576H27.816ZM28.104 35.44C29.0853 35.44 29.7573 35.2853 30.12 34.976C30.4827 34.656 30.664 34.1867 30.664 33.568C30.664 32.9387 30.44 32.4907 29.992 32.224C29.5547 31.9467 28.8507 31.808 27.88 31.808H25.992V35.44H28.104ZM25.992 36.64V40.784H28.296C29.3093 40.784 30.0133 40.5867 30.408 40.192C30.8027 39.7973 31 39.28 31 38.64C31 38.2347 30.9093 37.8827 30.728 37.584C30.5573 37.2853 30.264 37.056 29.848 36.896C29.4427 36.7253 28.888 36.64 28.184 36.64H25.992ZM38.1908 33.264C38.9268 33.264 39.5561 33.424 40.0788 33.744C40.6121 34.064 41.0175 34.5173 41.2948 35.104C41.5828 35.68 41.7268 36.3573 41.7268 37.136V37.984H35.8548C35.8761 38.9547 36.1215 39.696 36.5908 40.208C37.0708 40.7093 37.7375 40.96 38.5908 40.96C39.1348 40.96 39.6148 40.912 40.0308 40.816C40.4575 40.7093 40.8948 40.56 41.3428 40.368V41.6C40.9055 41.792 40.4735 41.9307 40.0468 42.016C39.6201 42.112 39.1135 42.16 38.5268 42.16C37.7161 42.16 36.9961 41.9947 36.3668 41.664C35.7481 41.3333 35.2628 40.8427 34.9108 40.192C34.5695 39.5307 34.3988 38.7253 34.3988 37.776C34.3988 36.8373 34.5535 36.032 34.8628 35.36C35.1828 34.688 35.6255 34.1707 36.1908 33.808C36.7668 33.4453 37.4335 33.264 38.1908 33.264ZM38.1748 34.416C37.5028 34.416 36.9695 34.6347 36.5748 35.072C36.1908 35.4987 35.9615 36.096 35.8868 36.864H40.2548C40.2548 36.3733 40.1801 35.9467 40.0308 35.584C39.8815 35.2213 39.6521 34.9387 39.3428 34.736C39.0441 34.5227 38.6548 34.416 38.1748 34.416ZM46.8866 41.008C47.1 41.008 47.3186 40.992 47.5426 40.96C47.7666 40.9173 47.948 40.8747 48.0866 40.832V41.904C47.9373 41.9787 47.724 42.0373 47.4466 42.08C47.1693 42.1333 46.9026 42.16 46.6466 42.16C46.1986 42.16 45.7826 42.0853 45.3986 41.936C45.0253 41.776 44.7213 41.504 44.4866 41.12C44.252 40.736 44.1346 40.1973 44.1346 39.504V34.512H42.9186V33.84L44.1506 33.28L44.7106 31.456H45.5426V33.424H48.0226V34.512H45.5426V39.472C45.5426 39.9947 45.6653 40.384 45.9106 40.64C46.1666 40.8853 46.492 41.008 46.8866 41.008Z" fill="white"/>
</svg>
