<svg width="52" height="52" viewBox="0 0 52 52" fill="none" xmlns="http://www.w3.org/2000/svg">
<circle opacity="0.1" cx="26" cy="26" r="26" fill="#087D4C"/>
<path d="M25.05 28.95L23.2 30.8C22.81 31.19 22.19 31.19 21.79 30.81C21.68 30.7 21.57 30.6 21.46 30.49C20.43 29.45 19.5 28.36 18.67 27.22C17.85 26.08 17.19 24.94 16.71 23.81C16.24 22.67 16 21.58 16 20.54C16 19.86 16.12 19.21 16.36 18.61C16.6 18 16.98 17.44 17.51 16.94C18.15 16.31 18.85 16 19.59 16C19.87 16 20.15 16.06 20.4 16.18C20.66 16.3 20.89 16.48 21.07 16.74L23.39 20.01C23.57 20.26 23.7 20.49 23.79 20.71C23.88 20.92 23.93 21.13 23.93 21.32C23.93 21.56 23.86 21.8 23.72 22.03C23.59 22.26 23.4 22.5 23.16 22.74L22.4 23.53C22.29 23.64 22.24 23.77 22.24 23.93C22.24 24.01 22.25 24.08 22.27 24.16C22.3 24.24 22.33 24.3 22.35 24.36C22.53 24.69 22.84 25.12 23.28 25.64C23.73 26.16 24.21 26.69 24.73 27.22C24.83 27.32 24.94 27.42 25.04 27.52C25.44 27.91 25.45 28.55 25.05 28.95Z" fill="#087D4C"/>
<path d="M35.97 32.33C35.97 32.61 35.92 32.9 35.82 33.18C35.79 33.26 35.76 33.34 35.72 33.42C35.55 33.78 35.33 34.12 35.04 34.44C34.55 34.98 34.01 35.37 33.4 35.62C33.39 35.62 33.38 35.63 33.37 35.63C32.78 35.87 32.14 36 31.45 36C30.43 36 29.34 35.76 28.19 35.27C27.04 34.78 25.89 34.12 24.75 33.29C24.36 33 23.97 32.71 23.6 32.4L26.87 29.13C27.15 29.34 27.4 29.5 27.61 29.61C27.66 29.63 27.72 29.66 27.79 29.69C27.87 29.72 27.95 29.73 28.04 29.73C28.21 29.73 28.34 29.67 28.45 29.56L29.21 28.81C29.46 28.56 29.7 28.37 29.93 28.25C30.16 28.11 30.39 28.04 30.64 28.04C30.83 28.04 31.03 28.08 31.25 28.17C31.47 28.26 31.7 28.39 31.95 28.56L35.26 30.91C35.52 31.09 35.7 31.3 35.81 31.55C35.91 31.8 35.97 32.05 35.97 32.33Z" fill="#087D4C"/>
</svg>
