<svg width="34" height="34" viewBox="0 0 34 34" fill="none" xmlns="http://www.w3.org/2000/svg">
<path d="M0 19.0243C0.196371 18.7335 0.468969 18.6407 0.818298 18.6427C2.72143 18.6543 4.62457 18.6477 6.52771 18.6482C7.15821 18.6482 7.3354 18.8279 7.33894 19.4589C7.33894 19.8022 7.34196 20.145 7.346 20.4883C7.35541 20.5314 7.36963 20.5734 7.38841 20.6135H8.20216C9.19815 20.6135 10.1941 20.6023 11.1896 20.621C11.4405 20.626 11.6874 20.6854 11.913 20.7952C13.1751 21.4323 14.425 22.0961 15.6845 22.7392C15.8495 22.8225 16.0312 22.8673 16.216 22.8705C17.5992 22.8795 18.9849 22.9209 20.3651 22.8594C22.242 22.774 23.4949 24.393 23.0567 26.0366C23.0517 26.0548 23.0658 26.078 23.0764 26.1209C24.3455 25.6686 25.6129 25.217 26.8786 24.766C28.0013 24.3622 29.118 23.9447 30.2477 23.5651C30.8701 23.351 31.5407 23.32 32.1802 23.4757C33.0691 23.6933 33.6537 24.2435 33.9207 25.1244C33.9419 25.1956 33.9712 25.2643 34 25.3339V26.1305C33.7875 26.9074 33.3942 27.5647 32.6481 27.9216C31.1337 28.6455 29.6354 29.4108 28.0781 30.0292C25.1734 31.1827 22.2319 32.2443 19.3035 33.3362C19.1476 33.3911 18.9835 33.4189 18.8183 33.4185C18.0328 33.4266 17.2469 33.4296 16.4614 33.4185C16.2636 33.4151 16.0679 33.3775 15.8829 33.3074C13.6026 32.4356 11.335 31.528 9.04318 30.6955C8.5318 30.5098 7.92805 30.5799 7.34146 30.5299C7.34146 31.0055 7.34146 31.3811 7.34146 31.7571C7.33843 32.3806 7.15367 32.5648 6.52468 32.5648C4.62154 32.5648 2.7179 32.5588 0.81426 32.5709C0.460892 32.5709 0.193847 32.4699 0.00302874 32.1751L0 19.0243ZM7.3566 29.3931C7.61507 29.3931 7.83567 29.4078 8.05425 29.3931C8.66305 29.3462 9.22642 29.4815 9.79332 29.7086C11.5369 30.4058 13.3033 31.0454 15.0434 31.7531C15.8797 32.0921 16.7731 32.268 17.6754 32.2715C18.6028 32.2847 19.4261 32.0414 20.2656 31.7163C23.2344 30.5724 26.2224 29.4804 29.1806 28.3103C30.2341 27.8938 31.2326 27.3315 32.2342 26.7959C32.7238 26.5339 32.9258 25.97 32.795 25.4511C32.6643 24.9321 32.2902 24.662 31.7733 24.5929C31.5567 24.5631 31.319 24.5308 31.117 24.5848C30.533 24.7403 29.956 24.9235 29.3835 25.1244C27.0917 25.9321 24.8039 26.7525 22.514 27.5667C22.035 27.7328 21.5625 27.8842 21.0355 27.8762C18.7784 27.8519 16.5204 27.8661 14.2629 27.8656C14.1744 27.8684 14.0857 27.8662 13.9974 27.859C13.8585 27.8465 13.729 27.7834 13.6336 27.6817C13.5382 27.5799 13.4835 27.4467 13.48 27.3072C13.4714 27.1619 13.52 27.0191 13.6154 26.9091C13.7107 26.7991 13.8453 26.7308 13.9903 26.7186C14.1226 26.7073 14.2554 26.7032 14.3881 26.7065C16.5129 26.6964 18.6376 26.7015 20.7619 26.6692C21.5771 26.657 22.1364 25.8438 21.9335 25.0538C21.7669 24.4046 21.2702 24.0361 20.5241 24.0356C19.0415 24.0356 17.5583 24.0532 16.0757 24.0401C15.8024 24.0343 15.5338 23.9679 15.2892 23.8458C14.0358 23.2142 12.7964 22.5555 11.5486 21.9128C11.4152 21.837 11.2664 21.7924 11.1134 21.7821C9.92912 21.7715 8.74483 21.776 7.56055 21.778C7.49245 21.7842 7.42493 21.7957 7.35862 21.8124L7.3566 29.3931ZM6.15919 19.8391H1.19489V31.3674H6.15919V19.8391Z" fill="white"/>
<path d="M20.1121 18.7426C15.1342 18.7426 11.0816 14.688 11.076 9.69996C11.0705 4.71192 15.1145 0.655266 20.097 0.641636C25.0795 0.628006 29.1599 4.70687 29.1553 9.70046C29.1498 14.6809 25.0886 18.7421 20.1121 18.7426ZM27.9872 9.68834C27.9872 5.34142 24.4601 1.81885 20.1121 1.81936C15.7708 1.81936 12.231 5.35757 12.2336 9.6944C12.2361 14.0312 15.7778 17.5694 20.1187 17.5664C24.4596 17.5634 27.9877 14.0358 27.9867 9.68834H27.9872Z" fill="white"/>
<path d="M15.9111 14.5403C15.7234 14.401 15.5073 14.3192 15.4381 14.1693C15.3629 14.0047 15.3993 13.7725 15.4381 13.5802C15.4593 13.4792 15.586 13.3939 15.6719 13.3081C18.3538 10.6232 21.0377 7.93875 23.7236 5.25484C23.7975 5.17274 23.8795 5.09833 23.9684 5.03273C24.2208 4.86766 24.4732 4.87826 24.6989 5.08018C24.9245 5.2821 24.9473 5.58499 24.7751 5.83134C24.7223 5.9023 24.6633 5.96852 24.5989 6.02922C21.8841 8.74443 19.1678 11.4586 16.4503 14.1718C16.3125 14.3111 16.1196 14.4 15.9111 14.5403Z" fill="white"/>
<path d="M19.4716 7.02403C19.4675 7.42657 19.3442 7.81889 19.1174 8.15145C18.8905 8.48401 18.5702 8.74191 18.1969 8.8926C17.8236 9.04328 17.414 9.08 17.0199 8.99812C16.6257 8.91624 16.2646 8.71943 15.9822 8.43253C15.6998 8.14562 15.5088 7.78149 15.4331 7.38609C15.3575 6.99069 15.4007 6.58174 15.5573 6.21087C15.7138 5.84 15.9768 5.52382 16.3129 5.30225C16.649 5.08068 17.0432 4.96364 17.4458 4.96591C17.7143 4.96683 17.9799 5.02092 18.2274 5.12508C18.4749 5.22923 18.6993 5.38138 18.8876 5.57273C19.076 5.76409 19.2246 5.99086 19.3248 6.23996C19.425 6.48906 19.4749 6.75554 19.4716 7.02403ZM17.4215 7.8822C17.5378 7.8849 17.6534 7.86432 17.7616 7.82169C17.8697 7.77906 17.9683 7.71523 18.0515 7.63396C18.1346 7.55269 18.2007 7.45561 18.2458 7.34844C18.2909 7.24127 18.3141 7.12616 18.314 7.00989C18.3133 6.7768 18.22 6.55355 18.0547 6.38925C17.8893 6.22495 17.6655 6.13306 17.4324 6.13379C17.1993 6.13453 16.9761 6.22783 16.8118 6.39317C16.6474 6.55851 16.5556 6.78235 16.5563 7.01544C16.5583 7.24471 16.6502 7.46403 16.8124 7.62615C16.9745 7.78827 17.1938 7.88023 17.4231 7.8822H17.4215Z" fill="white"/>
<path d="M22.7952 10.3252C23.1997 10.3266 23.5947 10.4479 23.9303 10.6738C24.2659 10.8997 24.527 11.2201 24.6805 11.5943C24.8341 11.9686 24.8732 12.38 24.7929 12.7765C24.7127 13.173 24.5166 13.5368 24.2296 13.8219C23.9426 14.107 23.5775 14.3006 23.1805 14.3782C22.7835 14.4558 22.3724 14.4139 21.9991 14.2579C21.6259 14.1019 21.3073 13.8387 21.0836 13.5016C20.86 13.1645 20.7413 12.7687 20.7426 12.3641C20.7445 11.8216 20.9618 11.302 21.3467 10.9196C21.7316 10.5373 22.2526 10.3235 22.7952 10.3252ZM22.782 13.2455C23.0109 13.248 23.2315 13.1597 23.3955 13C23.5595 12.8404 23.6536 12.6223 23.6574 12.3934C23.6627 12.2774 23.6444 12.1614 23.6034 12.0527C23.5624 11.944 23.4996 11.8448 23.4189 11.7612C23.3383 11.6776 23.2414 11.6114 23.1342 11.5665C23.027 11.5217 22.9118 11.4992 22.7957 11.5004C22.567 11.4974 22.3465 11.5847 22.1817 11.7432C22.017 11.9018 21.9215 12.1189 21.9158 12.3475C21.9132 12.4634 21.9337 12.5788 21.9759 12.6868C22.0181 12.7948 22.0814 12.8934 22.1619 12.9769C22.2424 13.0604 22.3387 13.1271 22.4451 13.1732C22.5515 13.2193 22.666 13.2439 22.782 13.2455Z" fill="white"/>
</svg>
