<svg width="24" height="24" viewBox="0 0 24 24" fill="none" xmlns="http://www.w3.org/2000/svg">
<path d="M21.9999 16C21.9999 15.7348 21.8945 15.4804 21.707 15.2929C21.5194 15.1054 21.2651 15 20.9999 15C20.7347 15 20.4803 15.1054 20.2928 15.2929C20.1052 15.4804 19.9999 15.7348 19.9999 16V19C19.9999 19.2652 19.8945 19.5196 19.707 19.7071C19.5194 19.8946 19.2651 20 18.9999 20H4.99988C4.73466 20 4.48031 19.8946 4.29277 19.7071C4.10523 19.5196 3.99988 19.2652 3.99988 19V16C3.99988 15.7348 3.89452 15.4804 3.70698 15.2929C3.51945 15.1054 3.26509 15 2.99988 15C2.73466 15 2.48031 15.1054 2.29277 15.2929C2.10523 15.4804 1.99988 15.7348 1.99988 16V19C1.99988 19.7956 2.31595 20.5587 2.87856 21.1213C3.44117 21.6839 4.20423 22 4.99988 22H18.9999C19.7955 22 20.5586 21.6839 21.1212 21.1213C21.6838 20.5587 21.9999 19.7956 21.9999 19V16Z" fill="white"/>
<path d="M11.0003 3V14.6L9.71129 13.3C9.52165 13.1316 9.2751 13.0415 9.02155 13.048C8.76801 13.0545 8.52641 13.1572 8.34567 13.3351C8.16493 13.513 8.05856 13.753 8.04809 14.0064C8.03763 14.2598 8.12384 14.5078 8.28929 14.7L11.2893 17.73C11.3823 17.824 11.493 17.8987 11.6151 17.9496C11.7371 18.0006 11.868 18.0268 12.0003 18.0268C12.1325 18.0268 12.2635 18.0006 12.3855 17.9496C12.5076 17.8987 12.6183 17.824 12.7113 17.73L15.7113 14.7C15.8767 14.5078 15.963 14.2598 15.9525 14.0064C15.942 13.753 15.8356 13.513 15.6549 13.3351C15.4742 13.1572 15.2326 13.0545 14.979 13.048C14.7255 13.0415 14.4789 13.1316 14.2893 13.3L13.0003 14.6V3C13.0003 2.73478 12.8949 2.48043 12.7074 2.29289C12.5199 2.10536 12.2655 2 12.0003 2C11.7351 2 11.4807 2.10536 11.2932 2.29289C11.1056 2.48043 11.0003 2.73478 11.0003 3Z" fill="white"/>
</svg>
