<svg width="72" height="72" viewBox="0 0 72 72" fill="none" xmlns="http://www.w3.org/2000/svg">
<circle cx="36" cy="36" r="36" fill="#087D4C"/>
<path d="M37.9167 52.3333C37.9167 49.4264 37.3653 46.6951 36.2626 44.1396C35.1612 41.584 33.6521 39.3479 31.7355 37.4312C29.8188 35.5146 27.5827 34.0055 25.0271 32.9041C22.4716 31.8014 19.7403 31.25 16.8334 31.25V25.5C16.8334 24.4458 17.209 23.5437 17.9604 22.7937C18.7104 22.0423 19.6125 21.6667 20.6667 21.6667H51.3334C52.3875 21.6667 53.2903 22.0423 54.0416 22.7937C54.7917 23.5437 55.1667 24.4458 55.1667 25.5V48.5C55.1667 49.5542 54.7917 50.4569 54.0416 51.2082C53.2903 51.9583 52.3875 52.3333 51.3334 52.3333H37.9167ZM30.25 52.3333C30.25 48.5958 28.9486 45.425 26.3458 42.8209C23.7417 40.2181 20.5709 38.9167 16.8334 38.9167V35.0833C19.2292 35.0833 21.4736 35.5382 23.5666 36.448C25.6583 37.359 27.4792 38.5889 29.0291 40.1376C30.5778 41.6875 31.8077 43.509 32.7187 45.602C33.6285 47.6937 34.0834 49.9375 34.0834 52.3333H30.25ZM22.5834 52.3333C22.5834 50.7361 22.0243 49.3785 20.9063 48.2604C19.7882 47.1424 18.4306 46.5833 16.8334 46.5833V42.75C19.4848 42.75 21.7445 43.684 23.6126 45.5522C25.482 47.4215 26.4167 49.6819 26.4167 52.3333H22.5834ZM41.2709 36.6167L48.9375 32.2083L41.2709 27.8L33.6042 32.2083L41.2709 36.6167ZM41.2709 42.4625L46.5417 39.3958V35.3708L41.2709 38.4375L36 35.3708V39.3958L41.2709 42.4625Z" fill="white"/>
</svg>
