<svg width="16" height="16" viewBox="0 0 16 16" fill="none" xmlns="http://www.w3.org/2000/svg">
<path d="M15.9851 8.18756C15.9851 7.64544 15.9402 7.10038 15.8445 6.56705H8.16748V9.63811H12.5637C12.3813 10.6286 11.7951 11.5048 10.9368 12.0616V14.0542H13.5596C15.0998 12.6652 15.9851 10.6139 15.9851 8.18756Z" fill="#4285F4"/>
<path d="M8.16747 15.9795C10.3626 15.9795 12.2138 15.2733 13.5626 14.0542L10.9398 12.0616C10.2101 12.548 9.26803 12.8235 8.17046 12.8235C6.04709 12.8235 4.24672 11.4198 3.60074 9.53262H0.894196V11.5868C2.27588 14.2799 5.09008 15.9795 8.16747 15.9795Z" fill="#34A853"/>
<path d="M3.59776 9.53262C3.25682 8.54214 3.25682 7.46962 3.59776 6.47914V4.42493H0.894206C-0.260186 6.67841 -0.260186 9.33335 0.894206 11.5868L3.59776 9.53262Z" fill="#FBBC04"/>
<path d="M8.16747 3.18536C9.32784 3.16778 10.4493 3.59562 11.2897 4.38096L13.6134 2.10404C12.142 0.750195 10.1891 0.00587228 8.16747 0.0293155C5.09008 0.0293155 2.27588 1.72895 0.894196 4.42492L3.59775 6.47913C4.24074 4.58902 6.0441 3.18536 8.16747 3.18536Z" fill="#EA4335"/>
</svg>
