<svg width="50" height="50" viewBox="0 0 50 50" fill="none" xmlns="http://www.w3.org/2000/svg">
<rect width="50" height="50" rx="10" fill="#F0CA43"/>
<path d="M34.8334 10.3333H16.1667C14.7522 10.3333 13.3957 10.8952 12.3955 11.8953C11.3953 12.8955 10.8334 14.2521 10.8334 15.6666V24.9999C10.8334 25.3535 10.9738 25.6927 11.2239 25.9427C11.4739 26.1928 11.8131 26.3333 12.1667 26.3333H18.8334V38.3333C18.8327 38.5883 18.9053 38.8381 19.0423 39.0532C19.1794 39.2682 19.3753 39.4395 19.6067 39.5466C19.8387 39.6534 20.0965 39.6913 20.3494 39.6559C20.6023 39.6204 20.8397 39.5131 21.0334 39.3466L24.8334 36.0933L28.6334 39.3466C28.8749 39.5532 29.1822 39.6667 29.5 39.6667C29.8178 39.6667 30.1252 39.5532 30.3667 39.3466L34.1667 36.0933L37.9667 39.3466C38.2082 39.5531 38.5156 39.6666 38.8334 39.6666C39.0263 39.6652 39.2169 39.6244 39.3934 39.5466C39.6248 39.4395 39.8207 39.2682 39.9578 39.0532C40.0948 38.8381 40.1673 38.5883 40.1667 38.3333V15.6666C40.1667 14.2521 39.6048 12.8955 38.6046 11.8953C37.6044 10.8952 36.2479 10.3333 34.8334 10.3333ZM13.5 23.6666V15.6666C13.5 14.9593 13.781 14.2811 14.2811 13.781C14.7812 13.2809 15.4595 12.9999 16.1667 12.9999C16.874 12.9999 17.5522 13.2809 18.0523 13.781C18.5524 14.2811 18.8334 14.9593 18.8334 15.6666V23.6666H13.5ZM37.5 35.4399L35.0334 33.3199C34.7919 33.1133 34.4845 32.9998 34.1667 32.9998C33.8489 32.9998 33.5416 33.1133 33.3 33.3199L29.5 36.5733L25.7 33.3199C25.4585 33.1133 25.1512 32.9998 24.8334 32.9998C24.5156 32.9998 24.2082 33.1133 23.9667 33.3199L21.5 35.4399V15.6666C21.4984 14.7299 21.2501 13.8102 20.78 12.9999H34.8334C35.5406 12.9999 36.2189 13.2809 36.719 13.781C37.2191 14.2811 37.5 14.9593 37.5 15.6666V35.4399ZM34.8334 16.9999C34.8334 17.3535 34.6929 17.6927 34.4429 17.9427C34.1928 18.1928 33.8537 18.3333 33.5 18.3333H25.5C25.1464 18.3333 24.8073 18.1928 24.5572 17.9427C24.3072 17.6927 24.1667 17.3535 24.1667 16.9999C24.1667 16.6463 24.3072 16.3072 24.5572 16.0571C24.8073 15.8071 25.1464 15.6666 25.5 15.6666H33.5C33.8537 15.6666 34.1928 15.8071 34.4429 16.0571C34.6929 16.3072 34.8334 16.6463 34.8334 16.9999ZM34.8334 22.3333C34.8334 22.6869 34.6929 23.026 34.4429 23.2761C34.1928 23.5261 33.8537 23.6666 33.5 23.6666H25.5C25.1464 23.6666 24.8073 23.5261 24.5572 23.2761C24.3072 23.026 24.1667 22.6869 24.1667 22.3333C24.1667 21.9796 24.3072 21.6405 24.5572 21.3904C24.8073 21.1404 25.1464 20.9999 25.5 20.9999H33.5C33.8537 20.9999 34.1928 21.1404 34.4429 21.3904C34.6929 21.6405 34.8334 21.9796 34.8334 22.3333ZM34.8334 27.6666C34.8334 28.0202 34.6929 28.3593 34.4429 28.6094C34.1928 28.8594 33.8537 28.9999 33.5 28.9999H25.5C25.1464 28.9999 24.8073 28.8594 24.5572 28.6094C24.3072 28.3593 24.1667 28.0202 24.1667 27.6666C24.1667 27.313 24.3072 26.9738 24.5572 26.7238C24.8073 26.4737 25.1464 26.3333 25.5 26.3333H33.5C33.8537 26.3333 34.1928 26.4737 34.4429 26.7238C34.6929 26.9738 34.8334 27.313 34.8334 27.6666Z" fill="white"/>
</svg>
