<svg width="51" height="50" viewBox="0 0 51 50" fill="none" xmlns="http://www.w3.org/2000/svg">
<rect x="0.21875" width="50" height="50" rx="10" fill="#F04343"/>
<g clip-path="url(#clip0_3624_10042)">
<path d="M15.4938 36.8495C14.9054 36.8837 14.3267 36.6881 13.8798 36.3039C12.9984 35.4173 12.9984 33.9852 13.8798 33.0986L33.1801 13.7982C34.0968 12.9404 35.5354 12.9881 36.3932 13.9048C37.1689 14.7339 37.2141 16.0081 36.4991 16.89L17.0851 36.3039C16.6439 36.6826 16.0745 36.8778 15.4938 36.8495Z" fill="white"/>
<path d="M34.7713 36.8496C34.1749 36.847 33.6034 36.6103 33.1799 36.1904L13.8796 16.8899C13.063 15.9363 13.1741 14.5012 14.1276 13.6846C14.9788 12.9557 16.234 12.9557 17.085 13.6846L36.4989 32.9849C37.4155 33.843 37.4629 35.2816 36.6048 36.1981C36.5707 36.2346 36.5354 36.2699 36.4989 36.304C36.0236 36.7174 35.3979 36.9149 34.7713 36.8496Z" fill="white"/>
</g>
<defs>
<clipPath id="clip0_3624_10042">
<rect width="24" height="24" fill="white" transform="translate(13.2188 13)"/>
</clipPath>
</defs>
</svg>
