<svg width="52" height="52" viewBox="0 0 52 52" fill="none" xmlns="http://www.w3.org/2000/svg">
<circle opacity="0.1" cx="26" cy="26" r="26" fill="#087D4C"/>
<path d="M31 16H21C18.24 16 16 18.23 16 20.98V26.96V27.96C16 30.71 18.24 32.94 21 32.94H22.5C22.77 32.94 23.13 33.12 23.3 33.34L24.8 35.33C25.46 36.21 26.54 36.21 27.2 35.33L28.7 33.34C28.89 33.09 29.19 32.94 29.5 32.94H31C33.76 32.94 36 30.71 36 27.96V20.98C36 18.23 33.76 16 31 16ZM22 26C21.44 26 21 25.55 21 25C21 24.45 21.45 24 22 24C22.55 24 23 24.45 23 25C23 25.55 22.56 26 22 26ZM26 26C25.44 26 25 25.55 25 25C25 24.45 25.45 24 26 24C26.55 24 27 24.45 27 25C27 25.55 26.56 26 26 26ZM30 26C29.44 26 29 25.55 29 25C29 24.45 29.45 24 30 24C30.55 24 31 24.45 31 25C31 25.55 30.56 26 30 26Z" fill="#087D4C"/>
</svg>
