<svg width="148" height="148" viewBox="0 0 148 148" fill="none" xmlns="http://www.w3.org/2000/svg">
<path d="M16.1875 71.6875V30.0625C16.1875 22.7027 19.1112 15.6444 24.3153 10.4403C29.5194 5.23615 36.5777 2.3125 43.9375 2.3125C51.2973 2.3125 58.3556 5.23615 63.5597 10.4403C68.7638 15.6444 71.6875 22.7027 71.6875 30.0625V32.375C71.6875 33.6016 71.2002 34.778 70.3329 35.6454C69.4655 36.5127 68.2891 37 67.0625 37C65.8359 37 64.6595 36.5127 63.7921 35.6454C62.9248 34.778 62.4375 33.6016 62.4375 32.375V30.0625C62.4375 25.156 60.4884 20.4504 57.019 16.981C53.5496 13.5116 48.844 11.5625 43.9375 11.5625C39.031 11.5625 34.3254 13.5116 30.856 16.981C27.3866 20.4504 25.4375 25.156 25.4375 30.0625V71.6875H16.1875Z" fill="#A7A297"/>
<path d="M71.6874 30.0625V32.375C71.6874 33.6016 71.2001 34.778 70.3328 35.6454C69.4654 36.5127 68.289 37 67.0624 37C65.8358 37 64.6594 36.5127 63.792 35.6454C62.9247 34.778 62.4374 33.6016 62.4374 32.375V30.0625C62.4374 25.156 60.4883 20.4504 57.0189 16.981C53.5494 13.5116 48.8439 11.5625 43.9374 11.5625C39.0309 11.5625 34.3253 13.5116 30.8559 16.981C27.3865 20.4504 25.4374 25.156 25.4374 30.0625V58.5294C22.9468 43.9494 21.471 29.2143 21.0205 14.43C24.3634 9.53439 29.1863 5.83796 34.7825 3.88224C40.3787 1.92652 46.4541 1.81431 52.1187 3.56203C57.7833 5.30976 62.7393 8.82557 66.2608 13.5944C69.7822 18.3632 71.6839 24.1344 71.6874 30.0625Z" fill="#C8C2B5"/>
<path d="M78.625 80.9375H6.9375V145.688H78.625V80.9375Z" fill="#F7B011"/>
<path d="M78.6249 80.9375V143.375C51.5918 143.375 29.253 116.157 25.8999 80.9375H78.6249Z" fill="#FCEE21"/>
<path d="M78.625 80.9375H6.9375L13.875 71.6875H71.6875L78.625 80.9375Z" fill="#202D35"/>
<path d="M78.625 80.9375H25.9C25.5816 77.8646 25.4272 74.7769 25.4375 71.6875H71.6875L78.625 80.9375Z" fill="#273640"/>
<path d="M27.75 69.375H13.875V71.6875H27.75V69.375Z" fill="#1D252D"/>
<path d="M71.6875 69.375H57.8125V71.6875H71.6875V69.375Z" fill="#1D252D"/>
<path d="M25.4375 115.625C25.4375 116.852 24.9502 118.028 24.0829 118.895C23.2155 119.763 22.0391 120.25 20.8125 120.25C19.5859 120.25 18.4095 119.763 17.5421 118.895C16.6748 118.028 16.1875 116.852 16.1875 115.625V97.125C16.1875 95.8984 16.6748 94.722 17.5421 93.8546C18.4095 92.9873 19.5859 92.5 20.8125 92.5C22.0391 92.5 23.2155 92.9873 24.0829 93.8546C24.9502 94.722 25.4375 95.8984 25.4375 97.125V115.625Z" fill="#202D35"/>
<path d="M57.8125 87.875H78.625V101.75H57.8125C56.5859 101.75 55.4095 101.263 54.5421 100.395C53.6748 99.528 53.1875 98.3516 53.1875 97.125V92.5C53.1875 91.2734 53.6748 90.097 54.5421 89.2296C55.4095 88.3623 56.5859 87.875 57.8125 87.875Z" fill="#F7B011"/>
<path d="M57.8125 106.375H78.625V120.25H57.8125C56.5859 120.25 55.4095 119.763 54.5421 118.895C53.6748 118.028 53.1875 116.852 53.1875 115.625V111C53.1875 109.773 53.6748 108.597 54.5421 107.73C55.4095 106.862 56.5859 106.375 57.8125 106.375Z" fill="#F7B011"/>
<path d="M57.8125 124.875H78.625V138.75H57.8125C56.5859 138.75 55.4095 138.263 54.5421 137.395C53.6748 136.528 53.1875 135.352 53.1875 134.125V129.5C53.1875 128.273 53.6748 127.097 54.5421 126.23C55.4095 125.362 56.5859 124.875 57.8125 124.875Z" fill="#F7B011"/>
<path d="M80.9375 90.1875H57.8125C56.5353 90.1875 55.5 91.2228 55.5 92.5V97.125C55.5 98.4022 56.5353 99.4375 57.8125 99.4375H80.9375C82.2147 99.4375 83.25 98.4022 83.25 97.125V92.5C83.25 91.2228 82.2147 90.1875 80.9375 90.1875Z" fill="#202D35"/>
<path d="M83.25 92.5V97.125C70.485 97.125 60.125 94.0262 60.125 90.1875H80.9375C81.5508 90.1875 82.139 90.4311 82.5727 90.8648C83.0064 91.2985 83.25 91.8867 83.25 92.5Z" fill="#273640"/>
<path d="M80.9375 108.688H57.8125C56.5353 108.688 55.5 109.723 55.5 111V115.625C55.5 116.902 56.5353 117.938 57.8125 117.938H80.9375C82.2147 117.938 83.25 116.902 83.25 115.625V111C83.25 109.723 82.2147 108.688 80.9375 108.688Z" fill="#202D35"/>
<path d="M83.25 111V115.625C70.485 115.625 60.125 112.526 60.125 108.688H80.9375C81.5508 108.688 82.139 108.931 82.5727 109.365C83.0064 109.798 83.25 110.387 83.25 111Z" fill="#273640"/>
<path d="M80.9375 127.188H57.8125C56.5353 127.188 55.5 128.223 55.5 129.5V134.125C55.5 135.402 56.5353 136.438 57.8125 136.438H80.9375C82.2147 136.438 83.25 135.402 83.25 134.125V129.5C83.25 128.223 82.2147 127.188 80.9375 127.188Z" fill="#202D35"/>
<path d="M83.25 129.5V134.125C70.485 134.125 60.125 131.026 60.125 127.188H80.9375C81.5508 127.188 82.139 127.431 82.5727 127.865C83.0064 128.298 83.25 128.887 83.25 129.5Z" fill="#273640"/>
<path d="M48.5625 99.4375C47.9492 99.4375 47.361 99.1939 46.9273 98.7602C46.4936 98.3265 46.25 97.7383 46.25 97.125V94.8125C46.25 94.1992 46.4936 93.611 46.9273 93.1773C47.361 92.7436 47.9492 92.5 48.5625 92.5C49.1758 92.5 49.764 92.7436 50.1977 93.1773C50.6314 93.611 50.875 94.1992 50.875 94.8125V97.125C50.875 97.7383 50.6314 98.3265 50.1977 98.7602C49.764 99.1939 49.1758 99.4375 48.5625 99.4375Z" fill="white"/>
<path d="M13.875 138.75C13.2617 138.75 12.6735 138.506 12.2398 138.073C11.8061 137.639 11.5625 137.051 11.5625 136.438V134.125C11.5625 133.512 11.8061 132.923 12.2398 132.49C12.6735 132.056 13.2617 131.812 13.875 131.812C14.4883 131.812 15.0765 132.056 15.5102 132.49C15.9439 132.923 16.1875 133.512 16.1875 134.125V136.438C16.1875 137.051 15.9439 137.639 15.5102 138.073C15.0765 138.506 14.4883 138.75 13.875 138.75Z" fill="#FCEE21"/>
<path d="M104.062 32.375C83.62 32.375 67.0625 45.8338 67.0625 62.4375C67.1802 66.7141 68.2851 70.9056 70.2908 74.6844C72.2966 78.4633 75.1489 81.7272 78.625 84.2212V92.5L84.4062 87.875C90.5003 90.9496 97.2368 92.5347 104.062 92.5C124.505 92.5 141.062 79.0412 141.062 62.4375C141.062 45.8338 124.505 32.375 104.062 32.375Z" fill="#00798A"/>
<path d="M141.062 62.4374C141.062 66.1676 140.224 69.8502 138.611 73.2136C130.958 79.8453 121.126 83.419 111 83.2499C90.5575 83.2499 74 69.7911 74 53.1874C74.0005 49.4571 74.8382 45.7746 76.4513 42.4111C84.1049 35.7795 93.9368 32.2058 104.062 32.3749C124.505 32.3749 141.062 45.8336 141.062 62.4374Z" fill="#087D4C"/>
<path d="M80.9375 90.1875H57.8125C56.5353 90.1875 55.5 91.2228 55.5 92.5V97.125C55.5 98.4022 56.5353 99.4375 57.8125 99.4375H80.9375C82.2147 99.4375 83.25 98.4022 83.25 97.125V92.5C83.25 91.2228 82.2147 90.1875 80.9375 90.1875Z" stroke="#222325" stroke-width="2" stroke-linecap="round" stroke-linejoin="round"/>
<path d="M80.9375 108.688H57.8125C56.5353 108.688 55.5 109.723 55.5 111V115.625C55.5 116.902 56.5353 117.938 57.8125 117.938H80.9375C82.2147 117.938 83.25 116.902 83.25 115.625V111C83.25 109.723 82.2147 108.688 80.9375 108.688Z" stroke="#222325" stroke-width="2" stroke-linecap="round" stroke-linejoin="round"/>
<path d="M80.9375 127.188H57.8125C56.5353 127.188 55.5 128.223 55.5 129.5V134.125C55.5 135.402 56.5353 136.438 57.8125 136.438H80.9375C82.2147 136.438 83.25 135.402 83.25 134.125V129.5C83.25 128.223 82.2147 127.188 80.9375 127.188Z" stroke="#222325" stroke-width="2" stroke-linecap="round" stroke-linejoin="round"/>
<path d="M78.625 136.438V145.688H6.9375V80.9375H74" stroke="#222325" stroke-width="2" stroke-linecap="round" stroke-linejoin="round"/>
<path d="M78.625 117.938V127.188" stroke="#222325" stroke-width="2" stroke-linecap="round" stroke-linejoin="round"/>
<path d="M78.625 99.4375V108.688" stroke="#222325" stroke-width="2" stroke-linecap="round" stroke-linejoin="round"/>
<path d="M69.375 71.6875H13.875L6.9375 80.9375" stroke="#222325" stroke-width="2" stroke-linejoin="round"/>
<path d="M16.1875 71.6875V30.0625C16.1875 22.7027 19.1112 15.6444 24.3153 10.4403C29.5194 5.23615 36.5777 2.3125 43.9375 2.3125C51.2973 2.3125 58.3556 5.23615 63.5597 10.4403C68.7638 15.6444 71.6875 22.7027 71.6875 30.0625V32.375C71.6875 33.6016 71.2002 34.778 70.3329 35.6454C69.4655 36.5127 68.2891 37 67.0625 37C65.8359 37 64.6595 36.5127 63.7921 35.6454C62.9248 34.778 62.4375 33.6016 62.4375 32.375V30.0625C62.4375 25.156 60.4884 20.4504 57.019 16.981C53.5496 13.5116 48.844 11.5625 43.9375 11.5625C39.031 11.5625 34.3254 13.5116 30.856 16.981C27.3866 20.4504 25.4375 25.156 25.4375 30.0625V71.6875" stroke="#222325" stroke-width="2" stroke-linecap="round" stroke-linejoin="round"/>
<path d="M13.875 71.6875V69.375H27.75V71.6875" stroke="#222325" stroke-width="2" stroke-linecap="round" stroke-linejoin="round"/>
<path d="M57.8125 71.6875V69.375H67.0625" stroke="#222325" stroke-width="2" stroke-linecap="round" stroke-linejoin="round"/>
<path d="M25.4375 115.625C25.4375 116.852 24.9502 118.028 24.0829 118.895C23.2155 119.763 22.0391 120.25 20.8125 120.25C19.5859 120.25 18.4095 119.763 17.5421 118.895C16.6748 118.028 16.1875 116.852 16.1875 115.625V97.125C16.1875 95.8984 16.6748 94.722 17.5421 93.8546C18.4095 92.9873 19.5859 92.5 20.8125 92.5C22.0391 92.5 23.2155 92.9873 24.0829 93.8546C24.9502 94.722 25.4375 95.8984 25.4375 97.125V115.625Z" stroke="#222325" stroke-width="2" stroke-linecap="round" stroke-linejoin="round"/>
<path d="M103.37 67.038C103.065 67.0398 102.764 66.9815 102.482 66.8664C102.2 66.7513 101.944 66.5817 101.728 66.3674L97.1029 61.7424C96.6675 61.3069 96.4229 60.7163 96.4229 60.1005C96.4229 59.4847 96.6675 58.8941 97.1029 58.4587C97.5384 58.0232 98.129 57.7786 98.7448 57.7786C99.3606 57.7786 99.9512 58.0232 100.387 58.4587L105.012 63.0837C105.228 63.2986 105.4 63.5544 105.518 63.8362C105.635 64.118 105.696 64.4202 105.696 64.7255C105.696 65.0308 105.635 65.3331 105.518 65.6149C105.4 65.8967 105.228 66.1524 105.012 66.3674C104.796 66.5817 104.539 66.7513 104.258 66.8664C103.976 66.9815 103.674 67.0398 103.37 67.038Z" fill="#00798A"/>
<path d="M98.7449 67.038C98.4405 67.0398 98.1388 66.9815 97.8571 66.8664C97.5753 66.7513 97.3191 66.5817 97.103 66.3674C96.8862 66.1524 96.7142 65.8967 96.5968 65.6149C96.4794 65.3331 96.4189 65.0308 96.4189 64.7255C96.4189 64.4202 96.4794 64.118 96.5968 63.8362C96.7142 63.5544 96.8862 63.2986 97.103 63.0837L101.728 58.4587C101.944 58.243 102.2 58.072 102.481 57.9553C102.763 57.8386 103.065 57.7786 103.37 57.7786C103.675 57.7786 103.977 57.8386 104.258 57.9553C104.54 58.072 104.796 58.243 105.012 58.4587C105.227 58.6743 105.398 58.9302 105.515 59.212C105.632 59.4937 105.692 59.7956 105.692 60.1005C105.692 60.4054 105.632 60.7074 105.515 60.9891C105.398 61.2708 105.227 61.5268 105.012 61.7424L100.387 66.3674C100.171 66.5817 99.9144 66.7513 99.6326 66.8664C99.3509 66.9815 99.0492 67.0398 98.7449 67.038Z" fill="#00798A"/>
<path d="M119.557 67.038C119.253 67.0398 118.951 66.9815 118.67 66.8664C118.388 66.7513 118.132 66.5817 117.915 66.3674L113.29 61.7424C112.855 61.3069 112.61 60.7163 112.61 60.1005C112.61 59.4847 112.855 58.8941 113.29 58.4587C113.726 58.0232 114.316 57.7786 114.932 57.7786C115.548 57.7786 116.139 58.0232 116.574 58.4587L121.199 63.0837C121.416 63.2986 121.588 63.5544 121.705 63.8362C121.823 64.118 121.883 64.4202 121.883 64.7255C121.883 65.0308 121.823 65.3331 121.705 65.6149C121.588 65.8967 121.416 66.1524 121.199 66.3674C120.983 66.5817 120.727 66.7513 120.445 66.8664C120.163 66.9815 119.862 67.0398 119.557 67.038Z" fill="#00798A"/>
<path d="M132.472 66.8771C132.168 66.8789 131.866 66.8206 131.584 66.7055C131.302 66.5904 131.046 66.4208 130.83 66.2065L126.205 61.5815C125.77 61.1461 125.525 60.5555 125.525 59.9396C125.525 59.3238 125.77 58.7332 126.205 58.2978C126.64 57.8623 127.231 57.6177 127.847 57.6177C128.463 57.6177 129.053 57.8623 129.489 58.2978L134.114 62.9228C134.33 63.1377 134.503 63.3935 134.62 63.6753C134.737 63.9571 134.798 64.2594 134.798 64.5646C134.798 64.8699 134.737 65.1722 134.62 65.454C134.503 65.7358 134.33 65.9915 134.114 66.2065C133.898 66.4208 133.641 66.5904 133.36 66.7055C133.078 66.8206 132.776 66.8789 132.472 66.8771Z" fill="#00798A"/>
<path d="M114.932 67.038C114.628 67.0398 114.326 66.9815 114.045 66.8664C113.763 66.7513 113.507 66.5817 113.29 66.3674C113.074 66.1524 112.902 65.8967 112.784 65.6149C112.667 65.3331 112.606 65.0308 112.606 64.7255C112.606 64.4202 112.667 64.118 112.784 63.8362C112.902 63.5544 113.074 63.2986 113.29 63.0837L117.915 58.4587C118.351 58.0232 118.942 57.7786 119.557 57.7786C120.173 57.7786 120.764 58.0232 121.199 58.4587C121.635 58.8941 121.879 59.4847 121.879 60.1005C121.879 60.7163 121.635 61.3069 121.199 61.7424L116.574 66.3674C116.358 66.5817 116.102 66.7513 115.82 66.8664C115.538 66.9815 115.237 67.0398 114.932 67.038Z" fill="#00798A"/>
<path d="M127.847 66.8771C127.543 66.8789 127.241 66.8206 126.959 66.7055C126.677 66.5904 126.421 66.4208 126.205 66.2065C125.988 65.9915 125.816 65.7358 125.699 65.454C125.581 65.1722 125.521 64.8699 125.521 64.5646C125.521 64.2594 125.581 63.9571 125.699 63.6753C125.816 63.3935 125.988 63.1377 126.205 62.9228L130.83 58.2978C131.265 57.8623 131.856 57.6177 132.472 57.6177C133.088 57.6177 133.678 57.8623 134.114 58.2978C134.549 58.7332 134.794 59.3238 134.794 59.9396C134.794 60.5555 134.549 61.1461 134.114 61.5815L129.489 66.2065C129.273 66.4208 129.016 66.5904 128.735 66.7055C128.453 66.8206 128.151 66.8789 127.847 66.8771Z" fill="#00798A"/>
<path d="M87.1823 67.038C86.878 67.0398 86.5763 66.9815 86.2945 66.8664C86.0128 66.7513 85.7565 66.5817 85.5404 66.3674L80.9154 61.7424C80.6998 61.5268 80.5288 61.2708 80.4121 60.9891C80.2954 60.7074 80.2354 60.4054 80.2354 60.1005C80.2354 59.7956 80.2954 59.4937 80.4121 59.212C80.5288 58.9302 80.6998 58.6743 80.9154 58.4587C81.1311 58.243 81.387 58.072 81.6687 57.9553C81.9505 57.8386 82.2524 57.7786 82.5573 57.7786C82.8622 57.7786 83.1642 57.8386 83.4459 57.9553C83.7276 58.072 83.9836 58.243 84.1992 58.4587L88.8242 63.0837C89.0409 63.2986 89.213 63.5544 89.3304 63.8362C89.4478 64.118 89.5082 64.4202 89.5082 64.7255C89.5082 65.0308 89.4478 65.3331 89.3304 65.6149C89.213 65.8967 89.0409 66.1524 88.8242 66.3674C88.6081 66.5817 88.3519 66.7513 88.0701 66.8664C87.7884 66.9815 87.4867 67.0398 87.1823 67.038Z" fill="#00798A"/>
<path d="M82.5574 67.038C82.253 67.0398 81.9513 66.9815 81.6696 66.8664C81.3878 66.7513 81.1316 66.5817 80.9155 66.3674C80.6987 66.1524 80.5267 65.8967 80.4093 65.6149C80.2919 65.3331 80.2314 65.0308 80.2314 64.7255C80.2314 64.4202 80.2919 64.118 80.4093 63.8362C80.5267 63.5544 80.6987 63.2986 80.9155 63.0837L85.5405 58.4587C85.9759 58.0232 86.5665 57.7786 87.1824 57.7786C87.7982 57.7786 88.3888 58.0232 88.8242 58.4587C89.2597 58.8941 89.5043 59.4847 89.5043 60.1005C89.5043 60.7163 89.2597 61.3069 88.8242 61.7424L84.1992 66.3674C83.9831 66.5817 83.7269 66.7513 83.4451 66.8664C83.1634 66.9815 82.8617 67.0398 82.5574 67.038Z" fill="#00798A"/>
<path d="M103.37 64.7255C103.065 64.7273 102.764 64.669 102.482 64.5539C102.2 64.4388 101.944 64.2692 101.728 64.0549L97.1029 59.4299C96.6675 58.9944 96.4229 58.4038 96.4229 57.788C96.4229 57.1722 96.6675 56.5816 97.1029 56.1462C97.5384 55.7107 98.129 55.4661 98.7448 55.4661C99.3606 55.4661 99.9512 55.7107 100.387 56.1462L105.012 60.7712C105.228 60.9861 105.4 61.2419 105.518 61.5237C105.635 61.8055 105.696 62.1077 105.696 62.413C105.696 62.7183 105.635 63.0206 105.518 63.3024C105.4 63.5842 105.228 63.8399 105.012 64.0549C104.796 64.2692 104.539 64.4388 104.258 64.5539C103.976 64.669 103.674 64.7273 103.37 64.7255Z" fill="#202D35"/>
<path d="M98.7449 64.7255C98.4405 64.7273 98.1388 64.669 97.8571 64.5539C97.5753 64.4388 97.3191 64.2692 97.103 64.0549C96.8862 63.8399 96.7142 63.5842 96.5968 63.3024C96.4794 63.0206 96.4189 62.7183 96.4189 62.413C96.4189 62.1077 96.4794 61.8055 96.5968 61.5237C96.7142 61.2419 96.8862 60.9861 97.103 60.7712L101.728 56.1462C101.944 55.9305 102.2 55.7595 102.481 55.6428C102.763 55.5261 103.065 55.4661 103.37 55.4661C103.675 55.4661 103.977 55.5261 104.258 55.6428C104.54 55.7595 104.796 55.9305 105.012 56.1462C105.227 56.3618 105.398 56.6177 105.515 56.8995C105.632 57.1812 105.692 57.4831 105.692 57.788C105.692 58.0929 105.632 58.3949 105.515 58.6766C105.398 58.9583 105.227 59.2143 105.012 59.4299L100.387 64.0549C100.171 64.2692 99.9144 64.4388 99.6326 64.5539C99.3509 64.669 99.0492 64.7273 98.7449 64.7255Z" fill="#202D35"/>
<path d="M119.557 64.7255C119.253 64.7273 118.951 64.669 118.67 64.5539C118.388 64.4388 118.132 64.2692 117.915 64.0549L113.29 59.4299C112.855 58.9944 112.61 58.4038 112.61 57.788C112.61 57.1722 112.855 56.5816 113.29 56.1462C113.726 55.7107 114.316 55.4661 114.932 55.4661C115.548 55.4661 116.139 55.7107 116.574 56.1462L121.199 60.7712C121.416 60.9861 121.588 61.2419 121.705 61.5237C121.823 61.8055 121.883 62.1077 121.883 62.413C121.883 62.7183 121.823 63.0206 121.705 63.3024C121.588 63.5842 121.416 63.8399 121.199 64.0549C120.983 64.2692 120.727 64.4388 120.445 64.5539C120.163 64.669 119.862 64.7273 119.557 64.7255Z" fill="#202D35"/>
<path d="M132.472 64.5646C132.168 64.5664 131.866 64.5081 131.584 64.393C131.302 64.2779 131.046 64.1083 130.83 63.894L126.205 59.269C125.77 58.8336 125.525 58.243 125.525 57.6271C125.525 57.0113 125.77 56.4207 126.205 55.9853C126.64 55.5498 127.231 55.3052 127.847 55.3052C128.463 55.3052 129.053 55.5498 129.489 55.9853L134.114 60.6103C134.33 60.8252 134.503 61.081 134.62 61.3628C134.737 61.6446 134.798 61.9469 134.798 62.2521C134.798 62.5574 134.737 62.8597 134.62 63.1415C134.503 63.4233 134.33 63.679 134.114 63.894C133.898 64.1083 133.641 64.2779 133.36 64.393C133.078 64.5081 132.776 64.5664 132.472 64.5646Z" fill="#202D35"/>
<path d="M114.932 64.7255C114.628 64.7273 114.326 64.669 114.045 64.5539C113.763 64.4388 113.507 64.2692 113.29 64.0549C113.074 63.8399 112.902 63.5842 112.784 63.3024C112.667 63.0206 112.606 62.7183 112.606 62.413C112.606 62.1077 112.667 61.8055 112.784 61.5237C112.902 61.2419 113.074 60.9861 113.29 60.7712L117.915 56.1462C118.351 55.7107 118.942 55.4661 119.557 55.4661C120.173 55.4661 120.764 55.7107 121.199 56.1462C121.635 56.5816 121.879 57.1722 121.879 57.788C121.879 58.4038 121.635 58.9944 121.199 59.4299L116.574 64.0549C116.358 64.2692 116.102 64.4388 115.82 64.5539C115.538 64.669 115.237 64.7273 114.932 64.7255Z" fill="#202D35"/>
<path d="M127.847 64.5646C127.543 64.5664 127.241 64.5081 126.959 64.393C126.677 64.2779 126.421 64.1083 126.205 63.894C125.988 63.679 125.816 63.4233 125.699 63.1415C125.581 62.8597 125.521 62.5574 125.521 62.2521C125.521 61.9469 125.581 61.6446 125.699 61.3628C125.816 61.081 125.988 60.8252 126.205 60.6103L130.83 55.9853C131.265 55.5498 131.856 55.3052 132.472 55.3052C133.088 55.3052 133.678 55.5498 134.114 55.9853C134.549 56.4207 134.794 57.0113 134.794 57.6271C134.794 58.243 134.549 58.8336 134.114 59.269L129.489 63.894C129.273 64.1083 129.016 64.2779 128.735 64.393C128.453 64.5081 128.151 64.5664 127.847 64.5646Z" fill="#202D35"/>
<path d="M87.1823 64.7255C86.878 64.7273 86.5763 64.669 86.2945 64.5539C86.0128 64.4388 85.7565 64.2692 85.5404 64.0549L80.9154 59.4299C80.6998 59.2143 80.5288 58.9583 80.4121 58.6766C80.2954 58.3949 80.2354 58.0929 80.2354 57.788C80.2354 57.4831 80.2954 57.1812 80.4121 56.8995C80.5288 56.6177 80.6998 56.3618 80.9154 56.1462C81.1311 55.9305 81.387 55.7595 81.6687 55.6428C81.9505 55.5261 82.2524 55.4661 82.5573 55.4661C82.8622 55.4661 83.1642 55.5261 83.4459 55.6428C83.7276 55.7595 83.9836 55.9305 84.1992 56.1462L88.8242 60.7712C89.0409 60.9861 89.213 61.2419 89.3304 61.5237C89.4478 61.8055 89.5082 62.1077 89.5082 62.413C89.5082 62.7183 89.4478 63.0206 89.3304 63.3024C89.213 63.5842 89.0409 63.8399 88.8242 64.0549C88.6081 64.2692 88.3519 64.4388 88.0701 64.5539C87.7884 64.669 87.4867 64.7273 87.1823 64.7255Z" fill="#202D35"/>
<path d="M82.5574 64.7255C82.253 64.7273 81.9513 64.669 81.6696 64.5539C81.3878 64.4388 81.1316 64.2692 80.9155 64.0549C80.6987 63.8399 80.5267 63.5842 80.4093 63.3024C80.2919 63.0206 80.2314 62.7183 80.2314 62.413C80.2314 62.1077 80.2919 61.8055 80.4093 61.5237C80.5267 61.2419 80.6987 60.9861 80.9155 60.7712L85.5405 56.1462C85.9759 55.7107 86.5665 55.4661 87.1824 55.4661C87.7982 55.4661 88.3888 55.7107 88.8242 56.1462C89.2597 56.5816 89.5043 57.1722 89.5043 57.788C89.5043 58.4038 89.2597 58.9944 88.8242 59.4299L84.1992 64.0549C83.9831 64.2692 83.7269 64.4388 83.4451 64.5539C83.1634 64.669 82.8617 64.7273 82.5574 64.7255Z" fill="#202D35"/>
<path d="M98.7446 57.7881L103.37 62.4131" stroke="white" stroke-linecap="round" stroke-linejoin="round"/>
<path d="M98.7446 62.4131L103.37 57.7881" stroke="white" stroke-linecap="round" stroke-linejoin="round"/>
<path d="M114.932 57.7881L119.557 62.4131" stroke="white" stroke-linecap="round" stroke-linejoin="round"/>
<path d="M127.847 57.6272L132.472 62.2522" stroke="white" stroke-linecap="round" stroke-linejoin="round"/>
<path d="M114.932 62.4131L119.557 57.7881" stroke="white" stroke-linecap="round" stroke-linejoin="round"/>
<path d="M127.847 62.2522L132.472 57.6272" stroke="white" stroke-linecap="round" stroke-linejoin="round"/>
<path d="M82.5571 57.7881L87.1821 62.4131" stroke="white" stroke-linecap="round" stroke-linejoin="round"/>
<path d="M82.5571 62.4131L87.1821 57.7881" stroke="white" stroke-linecap="round" stroke-linejoin="round"/>
<path d="M104.062 32.375C83.62 32.375 67.0625 45.8338 67.0625 62.4375C67.1802 66.7141 68.2851 70.9056 70.2908 74.6844C72.2966 78.4633 75.1489 81.7272 78.625 84.2212V92.5L84.4062 87.875C90.5003 90.9496 97.2368 92.5347 104.062 92.5C124.505 92.5 141.062 79.0412 141.062 62.4375C141.062 45.8338 124.505 32.375 104.062 32.375Z" stroke="#222325" stroke-width="2" stroke-linecap="round" stroke-linejoin="round"/>
</svg>
