<svg width="160" height="160" viewBox="0 0 160 160" fill="none" xmlns="http://www.w3.org/2000/svg">
<path d="M20 35V115C20 117.652 21.0536 120.196 22.9289 122.071C24.8043 123.946 27.3478 125 30 125H130C132.652 125 135.196 123.946 137.071 122.071C138.946 120.196 140 117.652 140 115V35H20ZM20 25H140C142.652 25 145.196 26.0536 147.071 27.9289C148.946 29.8043 150 32.3478 150 35V115C150 120.304 147.893 125.391 144.142 129.142C140.391 132.893 135.304 135 130 135H30C24.6957 135 19.6086 132.893 15.8579 129.142C12.1071 125.391 10 120.304 10 115V35C10 32.3478 11.0536 29.8043 12.9289 27.9289C14.8043 26.0536 17.3478 25 20 25Z" fill="#087D4C"/>
<path d="M141.25 35L102.58 79.2C99.7642 82.4189 96.2927 84.9986 92.3984 86.7661C88.504 88.5336 84.2767 89.4479 80 89.4479C75.7233 89.4479 71.496 88.5336 67.6016 86.7661C63.7073 84.9986 60.2358 82.4189 57.42 79.2L18.75 35H141.25ZM32.04 35L64.94 72.61C66.8172 74.7565 69.1317 76.4768 71.7283 77.6554C74.3248 78.8341 77.1434 79.4439 79.995 79.4439C82.8466 79.4439 85.6651 78.8341 88.2617 77.6554C90.8583 76.4768 93.1728 74.7565 95.05 72.61L127.96 35H32.04Z" fill="#087D4C"/>
</svg>
