<svg width="20" height="20" viewBox="0 0 20 20" fill="none" xmlns="http://www.w3.org/2000/svg">
<path d="M0.999634 4H11.9996C11.9996 4.53043 12.2103 5.03914 12.5854 5.41422C12.9605 5.78929 13.4692 6 13.9996 6H15.9996C16.5301 6 17.0388 5.78929 17.4138 5.41422C17.7889 5.03914 17.9996 4.53043 17.9996 4H18.9996C19.2649 4 19.5192 3.89464 19.7067 3.70711C19.8943 3.51957 19.9996 3.26522 19.9996 3C19.9996 2.73478 19.8943 2.48043 19.7067 2.29289C19.5192 2.10536 19.2649 2 18.9996 2H17.9996C17.9996 1.46957 17.7889 0.960859 17.4138 0.585786C17.0388 0.210714 16.5301 0 15.9996 0H13.9996C13.4692 0 12.9605 0.210714 12.5854 0.585786C12.2103 0.960859 11.9996 1.46957 11.9996 2H0.999634C0.734417 2 0.480063 2.10536 0.292527 2.29289C0.104991 2.48043 -0.000366211 2.73478 -0.000366211 3C-0.000366211 3.26522 0.104991 3.51957 0.292527 3.70711C0.480063 3.89464 0.734417 4 0.999634 4ZM13.9996 2H15.9996V3V4H13.9996V2ZM18.9996 9H9.99963C9.99963 8.46957 9.78892 7.96086 9.41385 7.58579C9.03877 7.21072 8.53007 7 7.99963 7H5.99963C5.4692 7 4.96049 7.21072 4.58542 7.58579C4.21035 7.96086 3.99963 8.46957 3.99963 9H0.999634C0.734417 9 0.480063 9.10536 0.292527 9.2929C0.104991 9.48043 -0.000366211 9.73479 -0.000366211 10C-0.000366211 10.2652 0.104991 10.5196 0.292527 10.7071C0.480063 10.8946 0.734417 11 0.999634 11H3.99963C3.99963 11.5304 4.21035 12.0391 4.58542 12.4142C4.96049 12.7893 5.4692 13 5.99963 13H7.99963C8.53007 13 9.03877 12.7893 9.41385 12.4142C9.78892 12.0391 9.99963 11.5304 9.99963 11H18.9996C19.2649 11 19.5192 10.8946 19.7067 10.7071C19.8943 10.5196 19.9996 10.2652 19.9996 10C19.9996 9.73479 19.8943 9.48043 19.7067 9.2929C19.5192 9.10536 19.2649 9 18.9996 9ZM5.99963 11V9H7.99963V10V11H5.99963ZM18.9996 16H15.9996C15.9996 15.4696 15.7889 14.9609 15.4138 14.5858C15.0388 14.2107 14.5301 14 13.9996 14H11.9996C11.4692 14 10.9605 14.2107 10.5854 14.5858C10.2103 14.9609 9.99963 15.4696 9.99963 16H0.999634C0.734417 16 0.480063 16.1054 0.292527 16.2929C0.104991 16.4804 -0.000366211 16.7348 -0.000366211 17C-0.000366211 17.2652 0.104991 17.5196 0.292527 17.7071C0.480063 17.8946 0.734417 18 0.999634 18H9.99963C9.99963 18.5304 10.2103 19.0391 10.5854 19.4142C10.9605 19.7893 11.4692 20 11.9996 20H13.9996C14.5301 20 15.0388 19.7893 15.4138 19.4142C15.7889 19.0391 15.9996 18.5304 15.9996 18H18.9996C19.2649 18 19.5192 17.8946 19.7067 17.7071C19.8943 17.5196 19.9996 17.2652 19.9996 17C19.9996 16.7348 19.8943 16.4804 19.7067 16.2929C19.5192 16.1054 19.2649 16 18.9996 16ZM11.9996 18V16H13.9996V17V18H11.9996Z" fill="#999999"/>
</svg>
