<svg width="26" height="26" viewBox="0 0 26 26" fill="none" xmlns="http://www.w3.org/2000/svg">
<path d="M13 14.4167C12.5986 14.4167 12.2624 14.2807 11.9913 14.0087C11.7193 13.7376 11.5833 13.4014 11.5833 13V1.66667C11.5833 1.26528 11.7193 0.928583 11.9913 0.656583C12.2624 0.385528 12.5986 0.25 13 0.25C13.4014 0.25 13.7381 0.385528 14.0101 0.656583C14.2811 0.928583 14.4167 1.26528 14.4167 1.66667V13C14.4167 13.4014 14.2811 13.7376 14.0101 14.0087C13.7381 14.2807 13.4014 14.4167 13 14.4167ZM13 25.75C11.2292 25.75 9.57072 25.4138 8.02467 24.7413C6.47767 24.0679 5.13183 23.1584 3.98717 22.0128C2.84156 20.8682 1.93206 19.5223 1.25867 17.9753C0.586222 16.4293 0.25 14.7708 0.25 13C0.25 11.3708 0.545139 9.8125 1.13542 8.325C1.72569 6.8375 2.57569 5.49167 3.68542 4.2875C3.94514 4.00417 4.27569 3.8625 4.67708 3.8625C5.07847 3.8625 5.42083 4.00417 5.70417 4.2875C5.96389 4.54722 6.08194 4.87164 6.05833 5.26075C6.03472 5.65081 5.89306 5.99931 5.63333 6.30625C4.80694 7.22708 4.17558 8.25983 3.73925 9.4045C3.30197 10.5501 3.08333 11.7486 3.08333 13C3.08333 15.7625 4.04572 18.1057 5.9705 20.0295C7.89433 21.9543 10.2375 22.9167 13 22.9167C15.7625 22.9167 18.1057 21.9543 20.0295 20.0295C21.9543 18.1057 22.9167 15.7625 22.9167 13C22.9167 11.7486 22.6924 10.5388 22.2437 9.3705C21.7951 8.20128 21.1576 7.15625 20.3312 6.23542C20.0715 5.95208 19.936 5.62153 19.9247 5.24375C19.9124 4.86597 20.0361 4.54722 20.2958 4.2875C20.5792 4.00417 20.9215 3.8625 21.3229 3.8625C21.7243 3.8625 22.0549 4.00417 22.3146 4.2875C23.4243 5.49167 24.2743 6.8375 24.8646 8.325C25.4549 9.8125 25.75 11.3708 25.75 13C25.75 14.7708 25.4138 16.4293 24.7413 17.9753C24.0679 19.5223 23.1589 20.8682 22.0142 22.0128C20.8686 23.1584 19.5228 24.0679 17.9767 24.7413C16.4297 25.4138 14.7708 25.75 13 25.75Z" fill="#969BA0"/>
</svg>
