<svg width="30" height="30" viewBox="0 0 30 30" fill="none" xmlns="http://www.w3.org/2000/svg">
<path fill-rule="evenodd" clip-rule="evenodd" d="M10.2188 3.45842C11.2246 1.88026 12.9898 0.833344 15 0.833344C17.0103 0.833344 18.7754 1.88026 19.7813 3.45842C21.6073 3.05326 23.5963 3.56184 25.0173 4.98276C26.4382 6.4051 26.9468 8.39267 26.5416 10.2202C28.1198 11.226 29.1667 12.9912 29.1667 15C29.1667 17.0103 28.1198 18.7754 26.5416 19.7813C26.9468 21.6088 26.4382 23.5963 25.0173 25.0173C23.5963 26.4396 21.6073 26.9468 19.7813 26.543C18.7754 28.1212 17.0103 29.1667 15 29.1667C12.9898 29.1667 11.2246 28.1212 10.2188 26.543C8.39126 26.9468 6.40368 26.4396 4.98276 25.0173C3.56184 23.5963 3.05327 21.6088 3.45702 19.7813C1.88027 18.7754 0.833344 17.0103 0.833344 15C0.833344 12.9912 1.88027 11.226 3.45702 10.2202C3.05327 8.39267 3.56184 6.4051 4.98276 4.98276C6.40368 3.56184 8.39126 3.05326 10.2188 3.45842ZM10.2939 6.4745C10.665 6.66717 11.1028 6.68558 11.4895 6.5255C11.8763 6.36541 12.1723 6.04242 12.2984 5.64434C12.6611 4.49825 13.7335 3.66668 15 3.66668C16.2665 3.66668 17.3389 4.49825 17.7016 5.64434C17.8277 6.04242 18.1238 6.36541 18.5105 6.5255C18.8973 6.68558 19.3336 6.66717 19.7048 6.4745C20.7729 5.92059 22.1188 6.09059 23.0141 6.98734C23.9094 7.88267 24.0809 9.22851 23.5269 10.2953C23.3343 10.6664 23.3144 11.1042 23.4745 11.4895C23.6346 11.8763 23.9576 12.1723 24.3557 12.2984C25.5032 12.6611 26.3333 13.7335 26.3333 15C26.3333 16.2665 25.5032 17.3403 24.3557 17.703C23.9576 17.8291 23.6346 18.1252 23.4745 18.5105C23.3144 18.8973 23.3343 19.335 23.5269 19.7062C24.0809 20.7729 23.9094 22.1188 23.0141 23.0141C22.1188 23.9094 20.7729 24.0808 19.7048 23.5269C19.3336 23.3343 18.8973 23.3158 18.5105 23.4759C18.1238 23.636 17.8277 23.959 17.7016 24.3571C17.3389 25.5032 16.2665 26.3333 15 26.3333C13.7335 26.3333 12.6611 25.5032 12.2984 24.3571C12.1723 23.959 11.8763 23.636 11.4895 23.4759C11.1028 23.3158 10.665 23.3343 10.2939 23.5269C9.22711 24.0808 7.88126 23.9094 6.98593 23.0141C6.0906 22.1188 5.91918 20.7729 6.4731 19.7062C6.66576 19.335 6.68418 18.8973 6.52552 18.5105C6.36543 18.1252 6.04243 17.8291 5.64293 17.703C4.49685 17.3403 3.66668 16.2665 3.66668 15C3.66668 13.7335 4.49685 12.6611 5.64293 12.2984C6.04243 12.1723 6.36543 11.8763 6.52552 11.4895C6.68418 11.1042 6.66576 10.6664 6.4731 10.2953C5.91918 9.22851 6.0906 7.88267 6.98593 6.98734C7.88126 6.09059 9.22711 5.92059 10.2939 6.4745ZM15 9.33334C11.872 9.33334 9.33334 11.8734 9.33334 15C9.33334 18.128 11.872 20.6667 15 20.6667C18.128 20.6667 20.6667 18.128 20.6667 15C20.6667 11.8734 18.128 9.33334 15 9.33334ZM15 12.1667C16.564 12.1667 17.8333 13.4374 17.8333 15C17.8333 16.564 16.564 17.8333 15 17.8333C13.436 17.8333 12.1667 16.564 12.1667 15C12.1667 13.4374 13.436 12.1667 15 12.1667Z" fill="#969BA0"/>
</svg>
