<svg width="32" height="30" viewBox="0 0 32 30" fill="none" xmlns="http://www.w3.org/2000/svg">
<path d="M28.75 13.844V7.91665C28.75 7.54092 28.6008 7.18059 28.3351 6.91491C28.0694 6.64924 27.7091 6.49998 27.3334 6.49998H4.66669C4.29096 6.49998 3.93063 6.35072 3.66495 6.08505C3.39928 5.81937 3.25002 5.45904 3.25002 5.08331C3.25002 4.70759 3.39928 4.34726 3.66495 4.08158C3.93063 3.8159 4.29096 3.66665 4.66669 3.66665H27.3334C27.7091 3.66665 28.0694 3.51739 28.3351 3.25171C28.6008 2.98604 28.75 2.6257 28.75 2.24998C28.75 1.87426 28.6008 1.51392 28.3351 1.24825C28.0694 0.982568 27.7091 0.833313 27.3334 0.833313H4.66669C3.53952 0.833313 2.45851 1.28108 1.66148 2.07811C0.864454 2.87514 0.416687 3.95614 0.416687 5.08331V24.9166C0.416687 26.0438 0.864454 27.1248 1.66148 27.9219C2.45851 28.7189 3.53952 29.1666 4.66669 29.1666H27.3334C27.7091 29.1666 28.0694 29.0174 28.3351 28.7517C28.6008 28.486 28.75 28.1257 28.75 27.75V21.8226C29.5781 21.5341 30.2959 20.9951 30.8039 20.2803C31.3118 19.5654 31.5847 18.7102 31.5847 17.8333C31.5847 16.9564 31.3118 16.1012 30.8039 15.3864C30.2959 14.6715 29.5781 14.1325 28.75 13.844ZM25.9167 26.3333H4.66669C4.29096 26.3333 3.93063 26.1841 3.66495 25.9184C3.39928 25.6527 3.25002 25.2924 3.25002 24.9166V9.07265C3.70372 9.24043 4.18298 9.32862 4.66669 9.33331H25.9167V13.5833H21.6667C20.5395 13.5833 19.4585 14.0311 18.6615 14.8281C17.8645 15.6251 17.4167 16.7061 17.4167 17.8333C17.4167 18.9605 17.8645 20.0415 18.6615 20.8385C19.4585 21.6355 20.5395 22.0833 21.6667 22.0833H25.9167V26.3333ZM27.3334 19.25H21.6667C21.291 19.25 20.9306 19.1007 20.665 18.835C20.3993 18.5694 20.25 18.209 20.25 17.8333C20.25 17.4576 20.3993 17.0973 20.665 16.8316C20.9306 16.5659 21.291 16.4166 21.6667 16.4166H27.3334C27.7091 16.4166 28.0694 16.5659 28.3351 16.8316C28.6008 17.0973 28.75 17.4576 28.75 17.8333C28.75 18.209 28.6008 18.5694 28.3351 18.835C28.0694 19.1007 27.7091 19.25 27.3334 19.25Z" fill="#969BA0"/>
</svg>
