<svg width="30" height="24" viewBox="0 0 30 24" fill="none" xmlns="http://www.w3.org/2000/svg">
<path fill-rule="evenodd" clip-rule="evenodd" d="M29.1677 6.33307C29.1677 3.2038 26.6304 0.666672 23.5008 0.666672C18.7832 0.666672 11.2165 0.666672 6.50022 0.666672C3.37069 0.666672 0.833344 3.2038 0.833344 6.33307V17.6659C0.833344 20.7952 3.37069 23.3323 6.50022 23.3323H23.5008C26.6304 23.3323 29.1677 20.7952 29.1677 17.6659V6.33307ZM26.3343 17.6659H3.66678C3.66678 19.2312 4.93474 20.4991 6.50022 20.4991H23.5008C25.0649 20.4991 26.3343 19.2312 26.3343 17.6659ZM3.66678 13.4161V14.8327H26.3343V13.4161H3.66678ZM26.3343 10.5829V6.33307C26.3343 4.76915 25.0649 3.49987 23.5008 3.49987C18.7832 3.49987 11.2165 3.49987 6.50022 3.49987C4.93474 3.49987 3.66678 4.76915 3.66678 6.33307V10.5829H26.3343Z" fill="#969BA0"/>
</svg>
