<svg width="32" height="32" viewBox="0 0 32 32" fill="none" xmlns="http://www.w3.org/2000/svg">
<path d="M25.9166 0.416687H6.08329C4.5804 0.416687 3.13906 1.01371 2.07635 2.07642C1.01365 3.13912 0.416626 4.58046 0.416626 6.08335V16C0.416626 16.3757 0.565881 16.7361 0.831558 17.0018C1.09723 17.2674 1.45757 17.4167 1.83329 17.4167H8.91663V30.1667C8.91596 30.4376 8.99301 30.7031 9.13864 30.9316C9.28428 31.1601 9.49239 31.342 9.73829 31.4559C9.98478 31.5693 10.2587 31.6096 10.5274 31.5719C10.7961 31.5343 11.0483 31.4202 11.2541 31.2434L15.2916 27.7867L19.3291 31.2434C19.5857 31.4628 19.9123 31.5834 20.25 31.5834C20.5876 31.5834 20.9142 31.4628 21.1708 31.2434L25.2083 27.7867L29.2458 31.2434C29.5024 31.4628 29.829 31.5834 30.1666 31.5834C30.3716 31.5819 30.5741 31.5385 30.7616 31.4559C31.0075 31.342 31.2156 31.1601 31.3613 30.9316C31.5069 30.7031 31.584 30.4376 31.5833 30.1667V6.08335C31.5833 4.58046 30.9863 3.13912 29.9236 2.07642C28.8609 1.01371 27.4195 0.416687 25.9166 0.416687ZM3.24996 14.5834V6.08335C3.24996 5.33191 3.54847 4.61124 4.07982 4.07988C4.61118 3.54853 5.33185 3.25002 6.08329 3.25002C6.83474 3.25002 7.55541 3.54853 8.08676 4.07988C8.61812 4.61124 8.91663 5.33191 8.91663 6.08335V14.5834H3.24996ZM28.75 27.0925L26.1291 24.84C25.8725 24.6205 25.546 24.4999 25.2083 24.4999C24.8706 24.4999 24.5441 24.6205 24.2875 24.84L20.25 28.2967L16.2125 24.84C15.9559 24.6205 15.6293 24.4999 15.2916 24.4999C14.954 24.4999 14.6274 24.6205 14.3708 24.84L11.75 27.0925V6.08335C11.7482 5.08812 11.4843 4.1109 10.985 3.25002H25.9166C26.6681 3.25002 27.3887 3.54853 27.9201 4.07988C28.4515 4.61124 28.75 5.33191 28.75 6.08335V27.0925ZM25.9166 7.50002C25.9166 7.87574 25.7674 8.23608 25.5017 8.50175C25.236 8.76743 24.8757 8.91669 24.5 8.91669H16C15.6242 8.91669 15.2639 8.76743 14.9982 8.50175C14.7326 8.23608 14.5833 7.87574 14.5833 7.50002C14.5833 7.1243 14.7326 6.76396 14.9982 6.49829C15.2639 6.23261 15.6242 6.08335 16 6.08335H24.5C24.8757 6.08335 25.236 6.23261 25.5017 6.49829C25.7674 6.76396 25.9166 7.1243 25.9166 7.50002ZM25.9166 13.1667C25.9166 13.5424 25.7674 13.9027 25.5017 14.1684C25.236 14.4341 24.8757 14.5834 24.5 14.5834H16C15.6242 14.5834 15.2639 14.4341 14.9982 14.1684C14.7326 13.9027 14.5833 13.5424 14.5833 13.1667C14.5833 12.791 14.7326 12.4306 14.9982 12.165C15.2639 11.8993 15.6242 11.75 16 11.75H24.5C24.8757 11.75 25.236 11.8993 25.5017 12.165C25.7674 12.4306 25.9166 12.791 25.9166 13.1667ZM25.9166 18.8334C25.9166 19.2091 25.7674 19.5694 25.5017 19.8351C25.236 20.1008 24.8757 20.25 24.5 20.25H16C15.6242 20.25 15.2639 20.1008 14.9982 19.8351C14.7326 19.5694 14.5833 19.2091 14.5833 18.8334C14.5833 18.4576 14.7326 18.0973 14.9982 17.8316C15.2639 17.5659 15.6242 17.4167 16 17.4167H24.5C24.8757 17.4167 25.236 17.5659 25.5017 17.8316C25.7674 18.0973 25.9166 18.4576 25.9166 18.8334Z" fill="#969BA0"/>
</svg>
