<svg width="24" height="30" viewBox="0 0 24 30" fill="none" xmlns="http://www.w3.org/2000/svg">
<path fill-rule="evenodd" clip-rule="evenodd" d="M14.9778 22.9631C18.2021 21.7561 20.5014 18.6437 20.5014 15C20.5014 12.654 19.5479 10.529 18.0094 8.99051C17.4569 8.43801 17.4569 7.53986 18.0094 6.98736C18.5634 6.43486 19.4601 6.43486 20.014 6.98736C22.0654 9.03869 23.3347 11.872 23.3347 15C23.3347 19.9343 20.1741 24.1361 15.7683 25.6902L17.0589 26.5855C17.7006 27.0318 17.8607 27.9144 17.4144 28.5575C16.9696 29.1993 16.0856 29.3593 15.4439 28.9131L11.1939 25.965C10.5535 25.5216 10.392 24.6433 10.8326 24.0001L13.6659 19.8663C14.1079 19.2203 14.9905 19.0559 15.6351 19.4979C16.2797 19.9399 16.444 20.8225 16.002 21.4671L14.9778 22.9631ZM8.26703 4.29711L6.96511 3.42868C6.31486 2.99518 6.13778 2.11401 6.57128 1.46376C7.0062 0.813513 7.88595 0.637845 8.5362 1.07135L12.7862 3.90468C13.4379 4.33818 13.6135 5.21794 13.18 5.86961L10.3467 10.1196C9.91178 10.7699 9.03203 10.9455 8.38178 10.512C7.73153 10.0785 7.55445 9.19736 7.98795 8.54711L8.98669 7.05111C5.78078 8.26802 3.50136 11.3691 3.50136 15C3.50136 17.346 4.45336 19.4696 5.99186 21.0095C6.54436 21.562 6.54436 22.4588 5.99186 23.0127C5.43936 23.5652 4.54119 23.5652 3.98869 23.0127C1.93736 20.9614 0.66803 18.128 0.66803 15C0.66803 10.053 3.84419 5.84127 8.26703 4.29711Z" fill="#969BA0"/>
</svg>
