<svg width="33" height="31" viewBox="0 0 33 31" fill="none" xmlns="http://www.w3.org/2000/svg">
<path d="M12.0833 22.3336V8.66691C12.0833 7.76075 12.4433 6.89171 13.0841 6.25096C13.7248 5.61021 14.5938 5.25024 15.5 5.25024H30.875V3.54191C30.875 1.66274 29.3375 0.125244 27.4583 0.125244H3.54167C2.63551 0.125244 1.76647 0.485213 1.12572 1.12596C0.484969 1.76671 0.125 2.63575 0.125 3.54191V27.4586C0.125 28.3647 0.484969 29.2338 1.12572 29.8745C1.76647 30.5153 2.63551 30.8752 3.54167 30.8752H27.4583C29.3375 30.8752 30.875 29.3377 30.875 27.4586V25.7502H15.5C14.5938 25.7502 13.7248 25.3903 13.0841 24.7495C12.4433 24.1088 12.0833 23.2397 12.0833 22.3336ZM17.2083 8.66691C16.2687 8.66691 15.5 9.43566 15.5 10.3752V20.6252C15.5 21.5648 16.2687 22.3336 17.2083 22.3336H32.5833V8.66691H17.2083ZM22.3333 18.0627C20.9154 18.0627 19.7708 16.9182 19.7708 15.5002C19.7708 14.0823 20.9154 12.9377 22.3333 12.9377C23.7512 12.9377 24.8958 14.0823 24.8958 15.5002C24.8958 16.9182 23.7512 18.0627 22.3333 18.0627Z" fill="white"/>
</svg>
